<svg width="50" height="50" viewBox="0 0 50 50" fill="none" xmlns="http://www.w3.org/2000/svg">
<path d="M26.0832 10.8034C25.7805 10.8034 25.4902 10.6834 25.2759 10.4697C25.0616 10.256 24.9407 9.96601 24.9398 9.66335C24.9398 7.54251 25.7823 5.50852 27.282 4.00886C28.7817 2.50919 30.8157 1.66669 32.9365 1.66669C33.5698 1.66669 34.0765 2.18002 34.0765 2.81002C34.0747 4.92856 33.2324 6.95982 31.7343 8.45785C30.2363 9.95589 28.205 10.7983 26.0865 10.8L26.0832 10.8034ZM42.7598 34.8567C43.1998 35.1867 43.3432 35.79 43.0932 36.28C39.0765 44.3267 35.8665 48.3334 32.9365 48.3334C31.5732 48.3334 30.2332 47.8934 28.9265 47.0334C27.9931 46.4186 26.9052 46.0797 25.7878 46.0555C24.6705 46.0314 23.5689 46.3229 22.6098 46.8967C21.0298 47.8434 19.5198 48.3334 18.0898 48.3334C13.7765 48.3334 6.6665 35.06 6.6665 27.7734C6.6665 20 10.7432 14.0667 16.9465 14.0667C19.8632 14.0667 22.3832 14.5 24.4998 15.3667C25.3965 15.74 26.4098 15.7134 27.2865 15.2934C29.0032 14.4667 31.2665 14.0667 34.0798 14.0667C37.5132 14.0667 40.4998 15.7767 42.9865 19.0934C43.1684 19.3356 43.2468 19.6403 43.2043 19.9403C43.1618 20.2403 43.0019 20.5111 42.7598 20.6934C39.9832 22.7734 38.6465 25.1134 38.6465 27.7734C38.6465 30.4367 39.9832 32.7734 42.7598 34.8567Z" stroke="#F8F8F8" stroke-width="2"/>
</svg>
