<svg width="43" height="48" viewBox="0 0 43 48" fill="none" xmlns="http://www.w3.org/2000/svg">
<g clip-path="url(#clip0_248_475)">
<path d="M20.0813 22.8833L0.178223 43.9397C0.401733 44.7395 0.803387 45.4772 1.35248 46.0962C1.90158 46.7153 2.58358 47.1994 3.34635 47.5115C4.10912 47.8236 4.93246 47.9555 5.75344 47.8971C6.57442 47.8386 7.3713 47.5914 8.08317 47.1744L30.4779 34.2951L20.0813 22.8833Z" fill="#EA4335"/>
<path d="M40.2067 19.3041L30.5224 13.7029L19.6216 23.3622L30.5668 34.2649L40.1773 28.7237C41.0286 28.2735 41.7418 27.5966 42.2393 26.7664C42.7369 25.9362 42.9999 24.9842 42.9999 24.0138C42.9999 23.0434 42.7369 22.0915 42.2393 21.2612C41.7418 20.431 41.0286 19.7541 40.1773 19.304L40.2067 19.3041Z" fill="#FBBC04"/>
<path d="M0.178102 3.98364C0.0577992 4.43275 -0.00208748 4.89616 5.55362e-05 5.3614V42.5617C0.00130284 43.0268 0.061132 43.4898 0.178102 43.9397L20.7635 23.4225L0.178102 3.98364Z" fill="#4285F4"/>
<path d="M20.2297 23.9617L30.5224 13.7031L8.15741 0.76377C7.31594 0.266143 6.35889 0.00260907 5.38374 1.04023e-05C2.96382 -0.00473871 0.836324 1.61708 0.178223 3.96875L20.2297 23.9617Z" fill="#34A853"/>
</g>
<defs>
<clipPath id="clip0_248_475">
<rect width="43" height="48" fill="white"/>
</clipPath>
</defs>
</svg>
