<svg width="15" height="16" viewBox="0 0 15 16" fill="none" xmlns="http://www.w3.org/2000/svg">
<g clip-path="url(#clip0_327_1657)">
<path d="M11 4H12M4.5 1H10.5C11.5609 1 12.5783 1.42143 13.3284 2.17157C14.0786 2.92172 14.5 3.93913 14.5 5V11C14.5 12.0609 14.0786 13.0783 13.3284 13.8284C12.5783 14.5786 11.5609 15 10.5 15H4.5C3.43913 15 2.42172 14.5786 1.67157 13.8284C0.921427 13.0783 0.5 12.0609 0.5 11V5C0.5 3.93913 0.921427 2.92172 1.67157 2.17157C2.42172 1.42143 3.43913 1 4.5 1ZM7.5 11C6.70435 11 5.94129 10.6839 5.37868 10.1213C4.81607 9.55871 4.5 8.79565 4.5 8C4.5 7.20435 4.81607 6.44129 5.37868 5.87868C5.94129 5.31607 6.70435 5 7.5 5C8.29565 5 9.05871 5.31607 9.62132 5.87868C10.1839 6.44129 10.5 7.20435 10.5 8C10.5 8.79565 10.1839 9.55871 9.62132 10.1213C9.05871 10.6839 8.29565 11 7.5 11Z" stroke="#F8F8F8"/>
</g>
<defs>
<clipPath id="clip0_327_1657">
<rect width="15" height="15" fill="white" transform="translate(0 0.5)"/>
</clipPath>
</defs>
</svg>
