<svg width="20" height="20" viewBox="0 0 20 20" fill="none" xmlns="http://www.w3.org/2000/svg">
<path d="M14.8201 18.768L1.75306 1.968C1.68419 1.87931 1.64159 1.77307 1.6301 1.66137C1.61861 1.54967 1.63871 1.43698 1.68809 1.33613C1.73747 1.23528 1.81416 1.15032 1.90944 1.09089C2.00472 1.03147 2.11477 0.99998 2.22706 1H4.70706C4.79836 1.00014 4.88842 1.0211 4.97038 1.06131C5.05235 1.10151 5.12406 1.15989 5.18006 1.232L18.2471 18.032C18.3159 18.1207 18.3585 18.2269 18.37 18.3386C18.3815 18.4503 18.3614 18.563 18.312 18.6639C18.2626 18.7647 18.186 18.8497 18.0907 18.9091C17.9954 18.9685 17.8854 19 17.7731 19H15.2931C15.2018 18.9999 15.1117 18.9789 15.0297 18.9387C14.9478 18.8985 14.8761 18.8401 14.8201 18.768Z" stroke="#F8F8F8" stroke-width="1.5"/>
<path d="M18 1L2 19" stroke="#F8F8F8" stroke-width="1.5" stroke-linecap="round"/>
</svg>
